# xmcd
# 
# Track frame offsets:
#     150
#     11321
#     19615
#     30392
#     39078
#     47986
#     60490
#     69227
#     80981
#     92930
#     103407
#     114917
#     122677
#     133026
#     144986
#     157512
#     167544
# 
# Disc length: 2377
# 
# Revision: 1
# Processed by: cddbd v1.5.2PL0 Copyright (c) Steve Scherf et al.
# Submitted via: fre:ac v1.0.31
# 
DISCID=cc094711
DTITLE=R&B - The Cole Slaw Club - The Big Rhythmn and Blues Revue
DYEAR=2016
DGENRE=R&B
TTITLE0=Buddy and Ella Johnson - My Old Man
TTITLE1=Louis Jordan - Workin''Man
TTITLE2=Jim Tyler - Fever
TTITLE3=Jo Ann Campbell - I Changed My Mind,Jack
TTITLE4=Pat Miller - Dance Of The Groovy Bird
TTITLE5=Louis Prima - Shadrack
TTITLE6=The Ddoley Sisters - Spider In The Web
TTITLE7=Richard Berry - Big John
TTITLE8=Sylvia Morra  - Summertime
TTITLE9=Jimmy Oliver's Orchestra - The Sneak
TTITLE10=Screamin'jay Hawkins and The Leroy Kirkland Orchestar - Talk About Me
TTITLE11=The Carrol Brothers - Salome Twist
TTITLE12=Little Mary Allen - Humdinger
TTITLE13=Eddie Bank(With The Five Dreamers) - Suagr Diabetes
TTITLE14=Vernon Green and The Medallions - A Lover's Prayer
TTITLE15=Miss Lavel - Stolen Love
TTITLE16=Al Brown and The Tune Toppers - Sweet Little Love Like You
EXTD=Bear Family/in-Akustik Records
EXTT0=
EXTT1=
EXTT2=
EXTT3=
EXTT4=
EXTT5=
EXTT6=
EXTT7=
EXTT8=
EXTT9=
EXTT10=
EXTT11=
EXTT12=
EXTT13=
EXTT14=
EXTT15=
EXTT16=
PLAYORDER=
